# xmcd
#
# Track frame offsets:
#	150
#	14996
#	30242
#	44718
#	57914
#	72987
#	91581
#	106465
#	121998
#	138000
#	152599
#	166309
#	182820
#	198164
#
# Disc length: 2820 seconds
#
# Revision: 1
# Processed by: cddbd v1.5.2PL0 Copyright (c) Steve Scherf et al.
# Submitted via: audiograbber 1.83.01
#
DISCID=b70b020e
DTITLE=Fred Weston - About Me
DYEAR=2015
DGENRE=Country
TTITLE0=About Me
TTITLE1=Home For Your Heart
TTITLE2=Not Sometime 
TTITLE3=I Remember Those Days
TTITLE4=Read My Letter
TTITLE5=Marry Me
TTITLE6=Lay Back
TTITLE7=He Thinks He Is A Man
TTITLE8=Virgin Or Nun
TTITLE9=Birdie
TTITLE10=Queen Of My Heart
TTITLE11=Kiss Me Again
TTITLE12=You Tell Me
TTITLE13=Bye, Bye Baby
EXTD=
EXTT0=
EXTT1=
EXTT2=
EXTT3=
EXTT4=
EXTT5=
EXTT6=
EXTT7=
EXTT8=
EXTT9=
EXTT10=
EXTT11=
EXTT12=
EXTT13=
PLAYORDER=
